<?xml version="1.0" encoding="us-ascii" standalone="no"?><svg xmlns="http://www.w3.org/2000/svg" xmlns:xlink="http://www.w3.org/1999/xlink" contentStyleType="text/css" height="976px" preserveAspectRatio="none" style="width:776px;height:976px;background:#FFFFFF;" version="1.1" viewBox="0 0 776 976" width="776px" zoomAndPan="magnify"><defs/><g><text fill="#000000" font-family="sans-serif" font-size="14" font-weight="bold" lengthAdjust="spacing" textLength="67" x="347.5118" y="22.9951">DB draw</text><g id="elem_setup"><ellipse cx="77.1638" cy="722.944" fill="#FFFECC" rx="40.6638" ry="14.5812" style="stroke:#333333;stroke-width:2.0;"/><text fill="#000000" font-family="sans-serif" font-size="14" lengthAdjust="spacing" textLength="41" x="54.0122" y="726.606">setup</text></g><g id="elem_composer:install"><ellipse cx="364.1107" cy="688.8849" fill="#FFFECC" rx="80.6107" ry="18.5221" style="stroke:#333333;stroke-width:2.0;"/><text fill="#000000" font-family="sans-serif" font-size="14" lengthAdjust="spacing" textLength="120" x="302.6726" y="692.1976">composer:install</text></g><g id="elem_dc:up"><ellipse cx="363.9237" cy="756.9347" fill="#FFFECC" rx="39.9237" ry="14.5719" style="stroke:#333333;stroke-width:2.0;"/><text fill="#000000" font-family="sans-serif" font-size="14" lengthAdjust="spacing" textLength="40" x="341.5405" y="760.5283">dc:up</text></g><g id="elem_qa"><ellipse cx="77.0061" cy="374.8864" fill="#FFFECC" rx="23.5061" ry="14.5236" style="stroke:#333333;stroke-width:2.0;"/><text fill="#000000" font-family="sans-serif" font-size="14" lengthAdjust="spacing" textLength="17" x="68.5061" y="377.7331">qa</text></g><g id="elem_composer:validate"><ellipse cx="364.0998" cy="131.0828" fill="#FFFECC" rx="86.5998" ry="19.72" style="stroke:#333333;stroke-width:2.0;"/><text fill="#000000" font-family="sans-serif" font-size="14" lengthAdjust="spacing" textLength="134" x="297.0998" y="133.9294">composer:validate</text></g><g id="elem_composer:normalize"><ellipse cx="363.7771" cy="206.8182" fill="#FFFECC" rx="92.7771" ry="20.9554" style="stroke:#333333;stroke-width:2.0;"/><text fill="#000000" font-family="sans-serif" font-size="14" lengthAdjust="spacing" textLength="148" x="289.7771" y="209.6649">composer:normalize</text></g><g id="elem_php:lint"><ellipse cx="363.8472" cy="278.0843" fill="#FFFECC" rx="53.3472" ry="14.7215" style="stroke:#333333;stroke-width:2.0;"/><text fill="#000000" font-family="sans-serif" font-size="14" lengthAdjust="spacing" textLength="58" x="331.8472" y="281.8318">php:lint</text></g><g id="elem_cs:fix"><ellipse cx="363.9534" cy="341.9184" fill="#FFFECC" rx="38.4534" ry="14.5556" style="stroke:#333333;stroke-width:2.0;"/><text fill="#000000" font-family="sans-serif" font-size="14" lengthAdjust="spacing" textLength="38" x="343.0903" y="345.3723">cs:fix</text></g><g id="elem_cs:check"><ellipse cx="364.0799" cy="406.6139" fill="#FFFECC" rx="57.0799" ry="14.7511" style="stroke:#333333;stroke-width:2.0;"/><text fill="#000000" font-family="sans-serif" font-size="14" lengthAdjust="spacing" textLength="63" x="329.5799" y="410.3615">cs:check</text></g><g id="elem_phpstan:analyze"><ellipse cx="364.1963" cy="475.802" fill="#FFFECC" rx="80.1963" ry="18.4393" style="stroke:#333333;stroke-width:2.0;"/><text fill="#000000" font-family="sans-serif" font-size="14" lengthAdjust="spacing" textLength="119" x="303.1039" y="479.1607">phpstan:analyze</text></g><g id="elem_phpunit:run"><ellipse cx="364.1678" cy="545.6963" fill="#FFFECC" rx="67.1678" ry="15.8336" style="stroke:#333333;stroke-width:2.0;"/><text fill="#000000" font-family="sans-serif" font-size="14" lengthAdjust="spacing" textLength="85" x="318.6678" y="549.4439">phpunit:run</text></g><g id="elem_plantuml:convert"><ellipse cx="364.212" cy="615.8052" fill="#FFFECC" rx="82.712" ry="18.9424" style="stroke:#333333;stroke-width:2.0;"/><text fill="#000000" font-family="sans-serif" font-size="14" lengthAdjust="spacing" textLength="125" x="301.0208" y="618.8843">plantuml:convert</text></g><g id="elem_db:wait-for-database"><ellipse cx="675.0118" cy="545.7652" fill="#FFFECC" rx="95.0118" ry="21.4024" style="stroke:#333333;stroke-width:2.0;"/><text fill="#000000" font-family="sans-serif" font-size="14" lengthAdjust="spacing" textLength="153" x="598.5118" y="548.6118">db:wait-for-database</text></g><g id="elem_help"><ellipse cx="77.1191" cy="60.8888" fill="#FFFECC" rx="34.1191" ry="14.526" style="stroke:#333333;stroke-width:2.0;"/><text fill="#000000" font-family="sans-serif" font-size="14" lengthAdjust="spacing" textLength="32" x="60.6725" y="63.9009">help</text></g><g id="elem_visualizer"><ellipse cx="363.8197" cy="60.6299" fill="#FFFECC" rx="59.3197" ry="14.7671" style="stroke:#333333;stroke-width:2.0;"/><text fill="#000000" font-family="sans-serif" font-size="14" lengthAdjust="spacing" textLength="66" x="327.8197" y="64.3775">visualizer</text></g><g id="elem_dc:stop"><ellipse cx="77.1079" cy="824.0644" fill="#FFFECC" rx="51.1079" ry="14.7016" style="stroke:#333333;stroke-width:2.0;"/><text fill="#000000" font-family="sans-serif" font-size="14" lengthAdjust="spacing" textLength="55" x="46.6079" y="827.812">dc:stop</text></g><g id="elem_dc:down"><ellipse cx="76.8402" cy="888.0966" fill="#FFFECC" rx="54.8402" ry="14.7338" style="stroke:#333333;stroke-width:2.0;"/><text fill="#000000" font-family="sans-serif" font-size="14" lengthAdjust="spacing" textLength="60" x="43.8402" y="891.8442">dc:down</text></g><g id="elem_mkdocs:build"><ellipse cx="77.1781" cy="953.9984" fill="#FFFECC" rx="71.1781" ry="16.6356" style="stroke:#333333;stroke-width:2.0;"/><text fill="#000000" font-family="sans-serif" font-size="14" lengthAdjust="spacing" textLength="96" x="26.1781" y="957.746">mkdocs:build</text></g><g id="elem_mkdocs:serve"><ellipse cx="364.1868" cy="823.8002" fill="#FFFECC" rx="72.6868" ry="16.9374" style="stroke:#333333;stroke-width:2.0;"/><text fill="#000000" font-family="sans-serif" font-size="14" lengthAdjust="spacing" textLength="100" x="311.1868" y="827.5477">mkdocs:serve</text></g><g id="elem_mkdocs:gh-deploy"><ellipse cx="364.0998" cy="896.0828" fill="#FFFECC" rx="86.5998" ry="19.72" style="stroke:#333333;stroke-width:2.0;"/><text fill="#000000" font-family="sans-serif" font-size="14" lengthAdjust="spacing" textLength="134" x="297.0998" y="898.9294">mkdocs:gh-deploy</text></g><!--link setup to composer:install--><g id="link_setup_composer:install"><path d="M115.552,718.3828 C160.368,713.0368 230.3043,704.6936 286.2523,698.0186 " fill="none" id="setup-to-composer:install" style="stroke:#1A85FF;stroke-width:2.0;"/><polygon fill="#1A85FF" points="292.21,697.3078,282.7995,694.4022,287.2452,697.9001,283.7472,702.3458,292.21,697.3078" style="stroke:#1A85FF;stroke-width:2.0;"/><text fill="#000000" font-family="sans-serif" font-size="13" lengthAdjust="spacing" textLength="61" x="179" y="698.9297">depend:1</text></g><!--link setup to dc:up--><g id="link_setup_dc:up"><path d="M115.496,727.8838 C134.257,730.3588 157.319,733.3448 178,735.8628 C229.019,742.0738 282.0639,748.0157 319.4569,752.1227 " fill="none" id="setup-to-dc:up" style="stroke:#1A85FF;stroke-width:2.0;"/><polygon fill="#1A85FF" points="325.421,752.7778,316.9115,747.8191,320.4509,752.2319,316.0381,755.7713,325.421,752.7778" style="stroke:#1A85FF;stroke-width:2.0;"/><text fill="#000000" font-family="sans-serif" font-size="13" lengthAdjust="spacing" textLength="61" x="179" y="731.9297">depend:2</text></g><!--link qa to composer:validate--><g id="link_qa_composer:validate"><path d="M85.5123,361.3028 C100.6342,334.7798 136.838,275.0368 178,233.8628 C213.834,198.0178 226.515,192.1528 271,167.8628 C285.203,160.1078 295.7963,155.2547 310.5823,149.4397 " fill="none" id="qa-to-composer:validate" style="stroke:#1A85FF;stroke-width:2.0;"/><polygon fill="#1A85FF" points="316.166,147.2438,306.3265,146.8152,311.5129,149.0737,309.2544,154.2602,316.166,147.2438" style="stroke:#1A85FF;stroke-width:2.0;"/><text fill="#000000" font-family="sans-serif" font-size="13" lengthAdjust="spacing" textLength="61" x="179" y="181.9297">depend:1</text></g><!--link qa to composer:normalize--><g id="link_qa_composer:normalize"><path d="M89.6913,362.6248 C107.465,344.5248 142.936,310.3428 178,287.8628 C216.18,263.3858 229.453,264.0478 271,245.8628 C286.575,239.0458 298.1803,234.0684 313.3953,227.6384 " fill="none" id="qa-to-composer:normalize" style="stroke:#1A85FF;stroke-width:2.0;"/><polygon fill="#1A85FF" points="318.922,225.3028,309.0748,225.1218,314.3164,227.2492,312.189,232.4908,318.922,225.3028" style="stroke:#1A85FF;stroke-width:2.0;"/><text fill="#000000" font-family="sans-serif" font-size="13" lengthAdjust="spacing" textLength="61" x="179" y="254.9297">depend:2</text></g><!--link qa to php:lint--><g id="link_qa_php:lint"><path d="M96.162,366.2558 C115.997,357.0448 148.834,342.3458 178,331.8628 C227.748,313.9818 280.7562,299.1282 318.4922,289.2082 " fill="none" id="qa-to-php:lint" style="stroke:#1A85FF;stroke-width:2.0;"/><polygon fill="#1A85FF" points="324.295,287.6828,314.5738,286.1024,319.4593,288.954,316.6077,293.8395,324.295,287.6828" style="stroke:#1A85FF;stroke-width:2.0;"/><text fill="#000000" font-family="sans-serif" font-size="13" lengthAdjust="spacing" textLength="61" x="179" y="308.9297">depend:3</text></g><!--link qa to cs:fix--><g id="link_qa_cs:fix"><path d="M100.3635,372.2738 C149.441,366.5908 260.9978,353.674 320.7818,346.751 " fill="none" id="qa-to-cs:fix" style="stroke:#1A85FF;stroke-width:2.0;"/><polygon fill="#1A85FF" points="326.742,346.0608,317.3416,343.1226,321.7752,346.636,318.2619,351.0695,326.742,346.0608" style="stroke:#1A85FF;stroke-width:2.0;"/><text fill="#000000" font-family="sans-serif" font-size="13" lengthAdjust="spacing" textLength="61" x="179" y="352.9297">depend:4</text></g><!--link qa to cs:check--><g id="link_qa_cs:check"><path d="M98.0058,381.7708 C117.985,388.3088 149.709,397.7208 178,401.8628 C221.077,408.1688 264.3814,409.2703 301.2534,408.8433 " fill="none" id="qa-to-cs:check" style="stroke:#1A85FF;stroke-width:2.0;"/><polygon fill="#1A85FF" points="307.253,408.7738,298.2073,404.8783,302.2533,408.8317,298.2999,412.8777,307.253,408.7738" style="stroke:#1A85FF;stroke-width:2.0;"/><text fill="#000000" font-family="sans-serif" font-size="13" lengthAdjust="spacing" textLength="61" x="179" y="397.9297">depend:5</text></g><!--link qa to phpstan:analyze--><g id="link_qa_phpstan:analyze"><path d="M93.2394,385.3938 C112.273,398.1028 146.213,419.3218 178,431.8628 C216.695,447.1288 256.2294,456.8656 292.3804,463.9966 " fill="none" id="qa-to-phpstan:analyze" style="stroke:#1A85FF;stroke-width:2.0;"/><polygon fill="#1A85FF" points="298.267,465.1578,290.2113,459.4917,293.3615,464.1902,288.663,467.3404,298.267,465.1578" style="stroke:#1A85FF;stroke-width:2.0;"/><text fill="#000000" font-family="sans-serif" font-size="13" lengthAdjust="spacing" textLength="61" x="179" y="427.9297">depend:6</text></g><!--link qa to phpunit:run--><g id="link_qa_phpunit:run"><path d="M87.9971,388.0888 C104.5945,409.2438 139.812,450.8518 178,475.8628 C221.234,504.1798 271.7984,521.7657 310.8914,532.7947 " fill="none" id="qa-to-phpunit:run" style="stroke:#1A85FF;stroke-width:2.0;"/><polygon fill="#1A85FF" points="316.666,534.4238,309.0902,528.1304,311.8538,533.0662,306.918,535.8298,316.666,534.4238" style="stroke:#1A85FF;stroke-width:2.0;"/><text fill="#000000" font-family="sans-serif" font-size="13" lengthAdjust="spacing" textLength="61" x="179" y="471.9297">depend:7</text></g><!--link qa to plantuml:convert--><g id="link_qa_plantuml:convert"><path d="M83.7454,388.8648 C96.617,418.7668 130.414,489.6528 178,532.8628 C215.398,566.8218 263.2838,586.9621 303.1718,599.7111 " fill="none" id="qa-to-plantuml:convert" style="stroke:#1A85FF;stroke-width:2.0;"/><polygon fill="#1A85FF" points="308.887,601.5378,301.532,594.9877,304.1244,600.0156,299.0964,602.6079,308.887,601.5378" style="stroke:#1A85FF;stroke-width:2.0;"/><text fill="#000000" font-family="sans-serif" font-size="13" lengthAdjust="spacing" textLength="61" x="179" y="528.9297">depend:8</text></g><!--link phpunit:run to db:wait-for-database--><g id="link_phpunit:run_db:wait-for-database"><path d="M431.288,545.8628 C474.646,545.8628 525.943,545.8628 573.978,545.8628 " fill="none" id="phpunit:run-to-db:wait-for-database" style="stroke:#1A85FF;stroke-width:2.0;"/><polygon fill="#1A85FF" points="579.978,545.8628,570.978,541.8628,574.978,545.8628,570.978,549.8628,579.978,545.8628" style="stroke:#1A85FF;stroke-width:2.0;"/><text fill="#000000" font-family="sans-serif" font-size="13" lengthAdjust="spacing" textLength="61" x="488" y="541.9297">depend:1</text></g><!--link help to visualizer--><g id="link_help_visualizer"><path d="M111.251,60.8628 C158.532,60.8628 239.915,60.8628 298.258,60.8628 " fill="none" id="help-to-visualizer" style="stroke:#D41159;stroke-width:2.0;"/><polygon fill="#D41159" points="304.258,60.8628,295.258,56.8628,299.258,60.8628,295.258,64.8628,304.258,60.8628" style="stroke:#D41159;stroke-width:2.0;"/><text fill="#000000" font-family="sans-serif" font-size="13" lengthAdjust="spacing" textLength="34" x="192.5" y="56.9297">call:1</text></g><!--SRC=[XPF1KkCm38RlUWhFS6aFEHGe2pxi32sR5rWuxUp1jTN64qVAsauBF3qcT4dI9f1B8lkJBFr_76rq20yhORmw098HiLq1Xzie8WjlTqKKndhKqJ81XD9IhRognEz26JvOsecjSW5xE_VUyo5dYcjsxCNAALsURZyMLfU48OZBtjPJmBKAk4e9EyyDcOyA5tcU_rglHq3s1lqHkcgVAUZB0q-R1PW5Z4qz5zcVYyNzxJBF_sO_nKnpLND0Bos5g9oR2oaCraaukPX8CLg-Btvobp3xfoRhxfMpHaKS5luYWTXNAUSLlpkYBchfBCKUTpLQESYjVUvHrnEKBb2NFMuvSMeIYgGYvLu6JTvCu0tPA7r3FVJ7AEeKnQPoKZFjqVVdkeLXeHD3DlAWRCosxBCajTea_uTo5-W-R7ouNYoMTstMteQcrTc_ipfvtpdUjWT7fzjtY7pyIbU4vj2f3sUIm8ZxC6OmdFz-S2x3S7OO7_Su8_J7Wl_MG-SkpAhIS0etZNMc2rCFU-p2NP4bzHo_pDy0]--></g></svg>