<?xml version="1.0" encoding="us-ascii" standalone="no"?><svg xmlns="http://www.w3.org/2000/svg" xmlns:xlink="http://www.w3.org/1999/xlink" contentStyleType="text/css" height="913px" preserveAspectRatio="none" style="width:744px;height:913px;background:#FFFFFF;" version="1.1" viewBox="0 0 744 913" width="744px" zoomAndPan="magnify"><defs/><g><text fill="#000000" font-family="sans-serif" font-size="14" font-weight="bold" lengthAdjust="spacing" textLength="67" x="331.5118" y="22.9951">DB draw</text><g id="elem_setup"><ellipse cx="61.1638" cy="626.944" fill="#FFFECC" rx="40.6638" ry="14.5812" style="stroke:#333333;stroke-width:2.0;"/><text fill="#000000" font-family="sans-serif" font-size="14" lengthAdjust="spacing" textLength="41" x="38.0122" y="630.606">setup</text></g><g id="elem_composer:install"><ellipse cx="332.1107" cy="558.8849" fill="#FFFECC" rx="80.6107" ry="18.5221" style="stroke:#333333;stroke-width:2.0;"/><text fill="#000000" font-family="sans-serif" font-size="14" lengthAdjust="spacing" textLength="120" x="270.6726" y="562.1976">composer:install</text></g><g id="elem_dc:up"><ellipse cx="331.9237" cy="626.9347" fill="#FFFECC" rx="39.9237" ry="14.5719" style="stroke:#333333;stroke-width:2.0;"/><text fill="#000000" font-family="sans-serif" font-size="14" lengthAdjust="spacing" textLength="40" x="309.5405" y="630.5283">dc:up</text></g><g id="elem_dc:ip"><ellipse cx="331.9961" cy="690.9051" fill="#FFFECC" rx="36.9961" ry="14.5423" style="stroke:#333333;stroke-width:2.0;"/><text fill="#000000" font-family="sans-serif" font-size="14" lengthAdjust="spacing" textLength="36" x="312.6301" y="694.2155">dc:ip</text></g><g id="elem_qa"><ellipse cx="61.0061" cy="311.8864" fill="#FFFECC" rx="23.5061" ry="14.5236" style="stroke:#333333;stroke-width:2.0;"/><text fill="#000000" font-family="sans-serif" font-size="14" lengthAdjust="spacing" textLength="17" x="52.5061" y="314.7331">qa</text></g><g id="elem_composer:validate"><ellipse cx="332.0998" cy="131.0828" fill="#FFFECC" rx="86.5998" ry="19.72" style="stroke:#333333;stroke-width:2.0;"/><text fill="#000000" font-family="sans-serif" font-size="14" lengthAdjust="spacing" textLength="134" x="265.0998" y="133.9294">composer:validate</text></g><g id="elem_composer:normalize"><ellipse cx="331.7771" cy="206.8182" fill="#FFFECC" rx="92.7771" ry="20.9554" style="stroke:#333333;stroke-width:2.0;"/><text fill="#000000" font-family="sans-serif" font-size="14" lengthAdjust="spacing" textLength="148" x="257.7771" y="209.6649">composer:normalize</text></g><g id="elem_cs:fix"><ellipse cx="331.9534" cy="277.9184" fill="#FFFECC" rx="38.4534" ry="14.5556" style="stroke:#333333;stroke-width:2.0;"/><text fill="#000000" font-family="sans-serif" font-size="14" lengthAdjust="spacing" textLength="38" x="311.0903" y="281.3723">cs:fix</text></g><g id="elem_phpstan:analyze"><ellipse cx="332.1963" cy="345.802" fill="#FFFECC" rx="80.1963" ry="18.4393" style="stroke:#333333;stroke-width:2.0;"/><text fill="#000000" font-family="sans-serif" font-size="14" lengthAdjust="spacing" textLength="119" x="271.1039" y="349.1607">phpstan:analyze</text></g><g id="elem_phpunit:run"><ellipse cx="332.1678" cy="415.6963" fill="#FFFECC" rx="67.1678" ry="15.8336" style="stroke:#333333;stroke-width:2.0;"/><text fill="#000000" font-family="sans-serif" font-size="14" lengthAdjust="spacing" textLength="85" x="286.6678" y="419.4439">phpunit:run</text></g><g id="elem_plantuml:convert"><ellipse cx="332.212" cy="485.8052" fill="#FFFECC" rx="82.712" ry="18.9424" style="stroke:#333333;stroke-width:2.0;"/><text fill="#000000" font-family="sans-serif" font-size="14" lengthAdjust="spacing" textLength="125" x="269.0208" y="488.8843">plantuml:convert</text></g><g id="elem_db:wait-for-database"><ellipse cx="643.0118" cy="415.7652" fill="#FFFECC" rx="95.0118" ry="21.4024" style="stroke:#333333;stroke-width:2.0;"/><text fill="#000000" font-family="sans-serif" font-size="14" lengthAdjust="spacing" textLength="153" x="566.5118" y="418.6118">db:wait-for-database</text></g><g id="elem_help"><ellipse cx="61.1191" cy="60.8888" fill="#FFFECC" rx="34.1191" ry="14.526" style="stroke:#333333;stroke-width:2.0;"/><text fill="#000000" font-family="sans-serif" font-size="14" lengthAdjust="spacing" textLength="32" x="44.6725" y="63.9009">help</text></g><g id="elem_visualizer"><ellipse cx="331.8197" cy="60.6299" fill="#FFFECC" rx="59.3197" ry="14.7671" style="stroke:#333333;stroke-width:2.0;"/><text fill="#000000" font-family="sans-serif" font-size="14" lengthAdjust="spacing" textLength="66" x="295.8197" y="64.3775">visualizer</text></g><g id="elem_dc:stop"><ellipse cx="61.1079" cy="757.0644" fill="#FFFECC" rx="51.1079" ry="14.7016" style="stroke:#333333;stroke-width:2.0;"/><text fill="#000000" font-family="sans-serif" font-size="14" lengthAdjust="spacing" textLength="55" x="30.6079" y="760.812">dc:stop</text></g><g id="elem_dc:down"><ellipse cx="60.8402" cy="821.0966" fill="#FFFECC" rx="54.8402" ry="14.7338" style="stroke:#333333;stroke-width:2.0;"/><text fill="#000000" font-family="sans-serif" font-size="14" lengthAdjust="spacing" textLength="60" x="27.8402" y="824.8442">dc:down</text></g><g id="elem_dc:shell"><ellipse cx="61.1079" cy="885.0644" fill="#FFFECC" rx="51.1079" ry="14.7016" style="stroke:#333333;stroke-width:2.0;"/><text fill="#000000" font-family="sans-serif" font-size="14" lengthAdjust="spacing" textLength="55" x="30.6079" y="888.812">dc:shell</text></g><g id="elem_remote:shell"><ellipse cx="332.1952" cy="756.7018" fill="#FFFECC" rx="69.6952" ry="16.339" style="stroke:#333333;stroke-width:2.0;"/><text fill="#000000" font-family="sans-serif" font-size="14" lengthAdjust="spacing" textLength="92" x="283.1952" y="760.4494">remote:shell</text></g><g id="elem_remote:qa"><ellipse cx="332.0594" cy="824.0747" fill="#FFFECC" rx="64.0594" ry="15.2119" style="stroke:#333333;stroke-width:2.0;"/><text fill="#000000" font-family="sans-serif" font-size="14" lengthAdjust="spacing" textLength="76" x="291.0594" y="827.8222">remote:qa</text></g><g id="elem_mkdocs:build"><ellipse cx="332.1781" cy="890.9984" fill="#FFFECC" rx="71.1781" ry="16.6356" style="stroke:#333333;stroke-width:2.0;"/><text fill="#000000" font-family="sans-serif" font-size="14" lengthAdjust="spacing" textLength="96" x="281.1781" y="894.746">mkdocs:build</text></g><g id="elem_mkdocs:serve"><ellipse cx="643.1868" cy="756.8002" fill="#FFFECC" rx="72.6868" ry="16.9374" style="stroke:#333333;stroke-width:2.0;"/><text fill="#000000" font-family="sans-serif" font-size="14" lengthAdjust="spacing" textLength="100" x="590.1868" y="760.5477">mkdocs:serve</text></g><g id="elem_mkdocs:gh-deploy"><ellipse cx="643.0998" cy="829.0828" fill="#FFFECC" rx="86.5998" ry="19.72" style="stroke:#333333;stroke-width:2.0;"/><text fill="#000000" font-family="sans-serif" font-size="14" lengthAdjust="spacing" textLength="134" x="576.0998" y="831.9294">mkdocs:gh-deploy</text></g><!--link setup to composer:install--><g id="link_setup_composer:install"><path d="M92.2012,617.3898 C108.137,612.5148 128.055,606.6138 146,601.8628 C188.236,590.6808 230.4532,580.8579 267.0072,572.7249 " fill="none" id="setup-to-composer:install" style="stroke:#1A85FF;stroke-width:2.0;"/><polygon fill="#1A85FF" points="272.864,571.4218,263.2101,569.4719,267.9833,572.5077,264.9475,577.281,272.864,571.4218" style="stroke:#1A85FF;stroke-width:2.0;"/><text fill="#000000" font-family="sans-serif" font-size="13" lengthAdjust="spacing" textLength="61" x="147" y="581.9297">depend:1</text></g><!--link setup to dc:up--><g id="link_setup_dc:up"><path d="M101.6919,626.8628 C152.697,626.8628 234.712,626.8628 285.583,626.8628 " fill="none" id="setup-to-dc:up" style="stroke:#1A85FF;stroke-width:2.0;"/><polygon fill="#1A85FF" points="291.583,626.8628,282.583,622.8628,286.583,626.8628,282.583,630.8628,291.583,626.8628" style="stroke:#1A85FF;stroke-width:2.0;"/><text fill="#000000" font-family="sans-serif" font-size="13" lengthAdjust="spacing" textLength="61" x="147" y="622.9297">depend:2</text></g><!--link setup to dc:ip--><g id="link_setup_dc:ip"><path d="M91.771,636.3678 C107.76,641.3088 127.86,647.2598 146,651.8628 C198.814,665.2648 255.028,676.5619 292.17,683.6379 " fill="none" id="setup-to-dc:ip" style="stroke:#1A85FF;stroke-width:2.0;"/><polygon fill="#1A85FF" points="298.064,684.7608,289.9716,679.1471,293.1523,683.8251,288.4744,687.0058,298.064,684.7608" style="stroke:#1A85FF;stroke-width:2.0;"/><text fill="#000000" font-family="sans-serif" font-size="13" lengthAdjust="spacing" textLength="61" x="147" y="647.9297">depend:3</text></g><!--link qa to composer:validate--><g id="link_qa_composer:validate"><path d="M72.1071,298.8058 C86.935,280.2098 116.083,245.7098 146,221.8628 C183.375,192.0708 196.051,188.8338 239,167.8628 C254.006,160.5358 265.2673,155.6524 280.4013,149.6764 " fill="none" id="qa-to-composer:validate" style="stroke:#1A85FF;stroke-width:2.0;"/><polygon fill="#1A85FF" points="285.982,147.4728,276.1419,147.0578,281.3314,149.3092,279.0801,154.4987,285.982,147.4728" style="stroke:#1A85FF;stroke-width:2.0;"/><text fill="#000000" font-family="sans-serif" font-size="13" lengthAdjust="spacing" textLength="61" x="147" y="178.9297">depend:1</text></g><!--link qa to composer:normalize--><g id="link_qa_composer:normalize"><path d="M79.0153,302.1958 C95.7353,292.9278 122.141,278.9008 146,268.8628 C188.151,251.1288 231.5594,236.6247 268.5964,225.2047 " fill="none" id="qa-to-composer:normalize" style="stroke:#1A85FF;stroke-width:2.0;"/><polygon fill="#1A85FF" points="274.33,223.4368,264.551,222.2662,269.552,224.9101,266.9082,229.9111,274.33,223.4368" style="stroke:#1A85FF;stroke-width:2.0;"/><text fill="#000000" font-family="sans-serif" font-size="13" lengthAdjust="spacing" textLength="61" x="147" y="242.9297">depend:2</text></g><!--link qa to cs:fix--><g id="link_qa_cs:fix"><path d="M84.4721,309.0228 C131.067,303.1328 232.5964,290.3001 289.0014,283.1711 " fill="none" id="qa-to-cs:fix" style="stroke:#1A85FF;stroke-width:2.0;"/><polygon fill="#1A85FF" points="294.954,282.4188,285.5235,279.5789,289.9935,283.0458,286.5266,287.5157,294.954,282.4188" style="stroke:#1A85FF;stroke-width:2.0;"/><text fill="#000000" font-family="sans-serif" font-size="13" lengthAdjust="spacing" textLength="61" x="147" y="289.9297">depend:3</text></g><!--link qa to phpstan:analyze--><g id="link_qa_phpstan:analyze"><path d="M83.6846,316.1928 C100.605,319.4598 124.728,323.8758 146,326.8628 C182.29,331.9588 216.793,335.7029 250.609,338.9239 " fill="none" id="qa-to-phpstan:analyze" style="stroke:#1A85FF;stroke-width:2.0;"/><polygon fill="#1A85FF" points="256.582,339.4928,248.0018,334.6574,251.6045,339.0187,247.2433,342.6214,256.582,339.4928" style="stroke:#1A85FF;stroke-width:2.0;"/><text fill="#000000" font-family="sans-serif" font-size="13" lengthAdjust="spacing" textLength="61" x="147" y="322.9297">depend:4</text></g><!--link qa to phpunit:run--><g id="link_qa_phpunit:run"><path d="M77.5503,322.1728 C94.0083,332.7398 121.008,349.1028 146,359.8628 C191.309,379.3688 239.7702,393.4518 277.7732,403.1738 " fill="none" id="qa-to-phpunit:run" style="stroke:#1A85FF;stroke-width:2.0;"/><polygon fill="#1A85FF" points="283.586,404.6608,275.8582,398.555,278.742,403.4216,273.8754,406.3054,283.586,404.6608" style="stroke:#1A85FF;stroke-width:2.0;"/><text fill="#000000" font-family="sans-serif" font-size="13" lengthAdjust="spacing" textLength="61" x="147" y="355.9297">depend:5</text></g><!--link qa to plantuml:convert--><g id="link_qa_plantuml:convert"><path d="M70.9419,325.0898 C84.9624,345.0138 113.859,382.9358 146,406.8628 C186.48,436.9978 234.5026,456.4137 273.6226,469.2387 " fill="none" id="qa-to-plantuml:convert" style="stroke:#1A85FF;stroke-width:2.0;"/><polygon fill="#1A85FF" points="279.324,471.1078,272.0179,464.5031,274.5728,469.5502,269.5258,472.105,279.324,471.1078" style="stroke:#1A85FF;stroke-width:2.0;"/><text fill="#000000" font-family="sans-serif" font-size="13" lengthAdjust="spacing" textLength="61" x="147" y="402.9297">depend:6</text></g><!--link phpunit:run to db:wait-for-database--><g id="link_phpunit:run_db:wait-for-database"><path d="M399.288,415.8628 C442.646,415.8628 493.943,415.8628 541.978,415.8628 " fill="none" id="phpunit:run-to-db:wait-for-database" style="stroke:#1A85FF;stroke-width:2.0;"/><polygon fill="#1A85FF" points="547.978,415.8628,538.978,411.8628,542.978,415.8628,538.978,419.8628,547.978,415.8628" style="stroke:#1A85FF;stroke-width:2.0;"/><text fill="#000000" font-family="sans-serif" font-size="13" lengthAdjust="spacing" textLength="61" x="456" y="411.9297">depend:1</text></g><!--link help to visualizer--><g id="link_help_visualizer"><path d="M95.2545,60.8628 C139.393,60.8628 212.06,60.8628 266.303,60.8628 " fill="none" id="help-to-visualizer" style="stroke:#D41159;stroke-width:2.0;"/><polygon fill="#D41159" points="272.303,60.8628,263.303,56.8628,267.303,60.8628,263.303,64.8628,272.303,60.8628" style="stroke:#D41159;stroke-width:2.0;"/><text fill="#000000" font-family="sans-serif" font-size="13" lengthAdjust="spacing" textLength="34" x="160.5" y="56.9297">call:1</text></g><!--SRC=[XPAnSjim38PtF0NlijY31YTnh-NGkzY9NY3fbEj0Yx35CqKe86GtVVemibDBYfHg8K7y0A7lfpZn2FShPTaS0ODLqfw0nwqe8SLkLugoZh4GHm4Wxbse3PjAFPR6qj65dTeQ7x6JkMEcOqv1rkI9rSgROZzCFvMks0UCKLrtKhyYhat4LIhOCJN1dZfSvNd-i5wF28ajybbqqtvJeYyl70uBC8ieJJrNsVFLukxxCiz_Pp_LhA2gfeYiNOXYl9yhhIpM2PnUJ9JOGhyV_jDTJ-jSLtS3inSpUV_1U6UDO7-0Bme2SPLg_c9_b96AgBVkp_y6gSiw0GZQ1EDVUqrl9-HDSAAv2HtfSbJgJP2cyhgWS42MZluRz1iD06xqqJZ9jiHPGcCsoTS-dXBz2VlzxMAn_D5M7LniMYxyhYsIfnSds_7Wx62xHg7pBZtzSDgvZrngxzEMiIB1OTXs6bA34KDXp3Fu_FBWCwa-7XWdSiO0tJ-73zTXLkqjfM3JE6ylORhuW9TmLsQ9ggVN-Hi0]--></g></svg>