<?xml version="1.0" encoding="UTF-8" standalone="no"?><svg xmlns="http://www.w3.org/2000/svg" xmlns:xlink="http://www.w3.org/1999/xlink" contentStyleType="text/css" height="914px" preserveAspectRatio="none" style="width:744px;height:914px;background:#FFFFFF;" version="1.1" viewBox="0 0 744 914" width="744px" zoomAndPan="magnify"><defs/><g><rect fill="none" height="26.2969" id="_title" style="stroke:none;stroke-width:1.0;" width="77" x="326.5118" y="5"/><text fill="#000000" font-family="sans-serif" font-size="14" font-weight="bold" lengthAdjust="spacing" textLength="67" x="331.5118" y="22.9951">DB draw</text><g id="elem_setup"><ellipse cx="61.1638" cy="626.944" fill="#FFFECC" rx="40.6638" ry="14.5812" style="stroke:#333333;stroke-width:2.0;"/><text fill="#000000" font-family="sans-serif" font-size="14" lengthAdjust="spacing" textLength="41" x="38.0122" y="630.606">setup</text></g><g id="elem_composer:install"><ellipse cx="332.1107" cy="558.8849" fill="#FFFECC" rx="80.6107" ry="18.5221" style="stroke:#333333;stroke-width:2.0;"/><text fill="#000000" font-family="sans-serif" font-size="14" lengthAdjust="spacing" textLength="120" x="270.6726" y="562.1976">composer:install</text></g><g id="elem_dc:up"><ellipse cx="331.9237" cy="626.9347" fill="#FFFECC" rx="39.9237" ry="14.5719" style="stroke:#333333;stroke-width:2.0;"/><text fill="#000000" font-family="sans-serif" font-size="14" lengthAdjust="spacing" textLength="40" x="309.5405" y="630.5283">dc:up</text></g><g id="elem_dc:ip"><ellipse cx="331.9961" cy="690.9051" fill="#FFFECC" rx="36.9961" ry="14.5423" style="stroke:#333333;stroke-width:2.0;"/><text fill="#000000" font-family="sans-serif" font-size="14" lengthAdjust="spacing" textLength="36" x="312.6301" y="694.2155">dc:ip</text></g><g id="elem_qa"><ellipse cx="61.0061" cy="311.8864" fill="#FFFECC" rx="23.5061" ry="14.5236" style="stroke:#333333;stroke-width:2.0;"/><text fill="#000000" font-family="sans-serif" font-size="14" lengthAdjust="spacing" textLength="17" x="52.5061" y="314.7331">qa</text></g><g id="elem_composer:validate"><ellipse cx="332.0998" cy="131.0828" fill="#FFFECC" rx="86.5998" ry="19.72" style="stroke:#333333;stroke-width:2.0;"/><text fill="#000000" font-family="sans-serif" font-size="14" lengthAdjust="spacing" textLength="134" x="265.0998" y="133.9294">composer:validate</text></g><g id="elem_composer:normalize"><ellipse cx="331.7771" cy="206.8182" fill="#FFFECC" rx="92.7771" ry="20.9554" style="stroke:#333333;stroke-width:2.0;"/><text fill="#000000" font-family="sans-serif" font-size="14" lengthAdjust="spacing" textLength="148" x="257.7771" y="209.6649">composer:normalize</text></g><g id="elem_cs:fix"><ellipse cx="331.9534" cy="277.9184" fill="#FFFECC" rx="38.4534" ry="14.5556" style="stroke:#333333;stroke-width:2.0;"/><text fill="#000000" font-family="sans-serif" font-size="14" lengthAdjust="spacing" textLength="38" x="311.0903" y="281.3723">cs:fix</text></g><g id="elem_phpstan:analyze"><ellipse cx="332.1963" cy="345.802" fill="#FFFECC" rx="80.1963" ry="18.4393" style="stroke:#333333;stroke-width:2.0;"/><text fill="#000000" font-family="sans-serif" font-size="14" lengthAdjust="spacing" textLength="119" x="271.1039" y="349.1607">phpstan:analyze</text></g><g id="elem_phpunit:run"><ellipse cx="332.1678" cy="415.6963" fill="#FFFECC" rx="67.1678" ry="15.8336" style="stroke:#333333;stroke-width:2.0;"/><text fill="#000000" font-family="sans-serif" font-size="14" lengthAdjust="spacing" textLength="85" x="286.6678" y="419.4439">phpunit:run</text></g><g id="elem_plantuml:convert"><ellipse cx="332.212" cy="485.8052" fill="#FFFECC" rx="82.712" ry="18.9424" style="stroke:#333333;stroke-width:2.0;"/><text fill="#000000" font-family="sans-serif" font-size="14" lengthAdjust="spacing" textLength="125" x="269.0208" y="488.8843">plantuml:convert</text></g><g id="elem_db:wait-for-database"><ellipse cx="643.0118" cy="415.7652" fill="#FFFECC" rx="95.0118" ry="21.4024" style="stroke:#333333;stroke-width:2.0;"/><text fill="#000000" font-family="sans-serif" font-size="14" lengthAdjust="spacing" textLength="153" x="566.5118" y="418.6118">db:wait-for-database</text></g><g id="elem_help"><ellipse cx="61.1191" cy="60.8888" fill="#FFFECC" rx="34.1191" ry="14.526" style="stroke:#333333;stroke-width:2.0;"/><text fill="#000000" font-family="sans-serif" font-size="14" lengthAdjust="spacing" textLength="32" x="44.6725" y="63.9009">help</text></g><g id="elem_visualizer"><ellipse cx="331.8197" cy="60.6299" fill="#FFFECC" rx="59.3197" ry="14.7671" style="stroke:#333333;stroke-width:2.0;"/><text fill="#000000" font-family="sans-serif" font-size="14" lengthAdjust="spacing" textLength="66" x="295.8197" y="64.3775">visualizer</text></g><g id="elem_dc:stop"><ellipse cx="61.1079" cy="756.0644" fill="#FFFECC" rx="51.1079" ry="14.7016" style="stroke:#333333;stroke-width:2.0;"/><text fill="#000000" font-family="sans-serif" font-size="14" lengthAdjust="spacing" textLength="55" x="30.6079" y="759.812">dc:stop</text></g><g id="elem_dc:down"><ellipse cx="60.8402" cy="820.0966" fill="#FFFECC" rx="54.8402" ry="14.7338" style="stroke:#333333;stroke-width:2.0;"/><text fill="#000000" font-family="sans-serif" font-size="14" lengthAdjust="spacing" textLength="60" x="27.8402" y="823.8442">dc:down</text></g><g id="elem_dc:shell"><ellipse cx="61.1079" cy="884.0644" fill="#FFFECC" rx="51.1079" ry="14.7016" style="stroke:#333333;stroke-width:2.0;"/><text fill="#000000" font-family="sans-serif" font-size="14" lengthAdjust="spacing" textLength="55" x="30.6079" y="887.812">dc:shell</text></g><g id="elem_remote:qa"><ellipse cx="332.0594" cy="756.0747" fill="#FFFECC" rx="64.0594" ry="15.2119" style="stroke:#333333;stroke-width:2.0;"/><text fill="#000000" font-family="sans-serif" font-size="14" lengthAdjust="spacing" textLength="76" x="291.0594" y="759.8222">remote:qa</text></g><g id="elem_mkdocs:build"><ellipse cx="332.1781" cy="822.9984" fill="#FFFECC" rx="71.1781" ry="16.6356" style="stroke:#333333;stroke-width:2.0;"/><text fill="#000000" font-family="sans-serif" font-size="14" lengthAdjust="spacing" textLength="96" x="281.1781" y="826.746">mkdocs:build</text></g><g id="elem_mkdocs:serve"><ellipse cx="332.1868" cy="891.8002" fill="#FFFECC" rx="72.6868" ry="16.9374" style="stroke:#333333;stroke-width:2.0;"/><text fill="#000000" font-family="sans-serif" font-size="14" lengthAdjust="spacing" textLength="100" x="279.1868" y="895.5477">mkdocs:serve</text></g><g id="elem_mkdocs:gh-deploy"><ellipse cx="643.0998" cy="756.0828" fill="#FFFECC" rx="86.5998" ry="19.72" style="stroke:#333333;stroke-width:2.0;"/><text fill="#000000" font-family="sans-serif" font-size="14" lengthAdjust="spacing" textLength="134" x="576.0998" y="758.9294">mkdocs:gh-deploy</text></g><!--MD5=[c4e3d432c5d44af54c7eae14d718607a]
link setup to composer:install--><g id="link_setup_composer:install"><path d="M92.2012,617.3898 C108.137,612.5148 128.055,606.6138 146,601.8628 C186.256,591.2048 231.816,580.5978 267.65,572.5848 " fill="none" id="setup-to-composer:install" style="stroke:#1A85FF;stroke-width:2.0;"/><polygon fill="#1A85FF" points="272.864,571.4218,263.209,569.4772,267.9839,572.5104,264.9508,577.2853,272.864,571.4218" style="stroke:#1A85FF;stroke-width:2.0;"/><text fill="#000000" font-family="sans-serif" font-size="13" lengthAdjust="spacing" textLength="61" x="147" y="581.9297">depend:1</text></g><!--MD5=[a418aa9f6b8b4a014169012d5f92d57a]
link setup to dc:up--><g id="link_setup_dc:up"><path d="M101.6919,626.8628 C151.003,626.8628 234.908,626.8628 286.396,626.8628 " fill="none" id="setup-to-dc:up" style="stroke:#1A85FF;stroke-width:2.0;"/><polygon fill="#1A85FF" points="291.583,626.8628,282.583,622.8628,286.583,626.8628,282.583,630.8628,291.583,626.8628" style="stroke:#1A85FF;stroke-width:2.0;"/><text fill="#000000" font-family="sans-serif" font-size="13" lengthAdjust="spacing" textLength="61" x="147" y="622.9297">depend:2</text></g><!--MD5=[dde10144cbfaedd765f35520ddf255da]
link setup to dc:ip--><g id="link_setup_dc:ip"><path d="M91.771,636.3678 C107.76,641.3088 127.86,647.2598 146,651.8628 C196.544,664.6888 255.602,676.6158 293.141,683.8198 " fill="none" id="setup-to-dc:ip" style="stroke:#1A85FF;stroke-width:2.0;"/><polygon fill="#1A85FF" points="298.064,684.7608,289.9764,679.1403,293.1531,683.8209,288.4725,686.9977,298.064,684.7608" style="stroke:#1A85FF;stroke-width:2.0;"/><text fill="#000000" font-family="sans-serif" font-size="13" lengthAdjust="spacing" textLength="61" x="147" y="647.9297">depend:3</text></g><!--MD5=[2b3f4df63b0ee79c9fb6dbf297809d2e]
link qa to composer:validate--><g id="link_qa_composer:validate"><path d="M72.1071,298.8058 C86.935,280.2098 116.083,245.7098 146,221.8628 C183.375,192.0708 196.051,188.8338 239,167.8628 C252.482,161.2798 267.446,154.8908 281.322,149.3268 " fill="none" id="qa-to-composer:validate" style="stroke:#1A85FF;stroke-width:2.0;"/><polygon fill="#1A85FF" points="285.982,147.4728,276.1408,147.0836,281.3363,149.3214,279.0986,154.5168,285.982,147.4728" style="stroke:#1A85FF;stroke-width:2.0;"/><text fill="#000000" font-family="sans-serif" font-size="13" lengthAdjust="spacing" textLength="61" x="147" y="178.9297">depend:1</text></g><!--MD5=[bd109b3677e86d799c713ba6a41cbebf]
link qa to composer:normalize--><g id="link_qa_composer:normalize"><path d="M79.0153,302.1958 C95.7353,292.9278 122.141,278.9008 146,268.8628 C186.34,251.8908 233.082,236.2578 269.49,224.9358 " fill="none" id="qa-to-composer:normalize" style="stroke:#1A85FF;stroke-width:2.0;"/><polygon fill="#1A85FF" points="274.33,223.4368,264.5494,222.2793,269.554,224.9165,266.9168,229.921,274.33,223.4368" style="stroke:#1A85FF;stroke-width:2.0;"/><text fill="#000000" font-family="sans-serif" font-size="13" lengthAdjust="spacing" textLength="61" x="147" y="242.9297">depend:2</text></g><!--MD5=[082354927f44ea0263e08b774e155835]
link qa to cs:fix--><g id="link_qa_cs:fix"><path d="M84.4721,309.0228 C129.702,303.3058 232.304,290.3378 289.868,283.0618 " fill="none" id="qa-to-cs:fix" style="stroke:#1A85FF;stroke-width:2.0;"/><polygon fill="#1A85FF" points="294.954,282.4188,285.5233,279.5794,289.9935,283.046,286.5269,287.5162,294.954,282.4188" style="stroke:#1A85FF;stroke-width:2.0;"/><text fill="#000000" font-family="sans-serif" font-size="13" lengthAdjust="spacing" textLength="61" x="147" y="289.9297">depend:3</text></g><!--MD5=[813d92c9fb1ef4075574608099832508]
link qa to phpstan:analyze--><g id="link_qa_phpstan:analyze"><path d="M83.6846,316.1928 C100.605,319.4598 124.728,323.8758 146,326.8628 C180.447,331.7008 218.666,335.8318 251.38,338.9938 " fill="none" id="qa-to-phpstan:analyze" style="stroke:#1A85FF;stroke-width:2.0;"/><polygon fill="#1A85FF" points="256.582,339.4928,248.0048,334.6522,251.6048,339.0156,247.2414,342.6157,256.582,339.4928" style="stroke:#1A85FF;stroke-width:2.0;"/><text fill="#000000" font-family="sans-serif" font-size="13" lengthAdjust="spacing" textLength="61" x="147" y="322.9297">depend:4</text></g><!--MD5=[f650ecf875d4995533402a90e716630b]
link qa to phpunit:run--><g id="link_qa_phpunit:run"><path d="M77.5503,322.1728 C94.0083,332.7398 121.008,349.1028 146,359.8628 C189.362,378.5308 240.935,393.5928 278.599,403.3748 " fill="none" id="qa-to-phpunit:run" style="stroke:#1A85FF;stroke-width:2.0;"/><polygon fill="#1A85FF" points="283.586,404.6608,275.8683,398.5422,278.7441,403.4135,273.8727,406.2892,283.586,404.6608" style="stroke:#1A85FF;stroke-width:2.0;"/><text fill="#000000" font-family="sans-serif" font-size="13" lengthAdjust="spacing" textLength="61" x="147" y="355.9297">depend:5</text></g><!--MD5=[76e7236dd687989a4b3fc015f326e4b7]
link qa to plantuml:convert--><g id="link_qa_plantuml:convert"><path d="M70.9419,325.0898 C84.9624,345.0138 113.859,382.9358 146,406.8628 C184.74,435.7028 235.612,456.4378 274.202,469.4078 " fill="none" id="qa-to-plantuml:convert" style="stroke:#1A85FF;stroke-width:2.0;"/><polygon fill="#1A85FF" points="279.324,471.1078,272.043,464.4756,274.5787,469.5322,269.5221,472.068,279.324,471.1078" style="stroke:#1A85FF;stroke-width:2.0;"/><text fill="#000000" font-family="sans-serif" font-size="13" lengthAdjust="spacing" textLength="61" x="147" y="402.9297">depend:6</text></g><!--MD5=[001fbe53bd7acbf5ecd31da381785675]
link phpunit:run to db:wait-for-database--><g id="link_phpunit:run_db:wait-for-database"><path d="M399.288,415.8628 C441.122,415.8628 495.931,415.8628 542.878,415.8628 " fill="none" id="phpunit:run-to-db:wait-for-database" style="stroke:#1A85FF;stroke-width:2.0;"/><polygon fill="#1A85FF" points="547.978,415.8628,538.978,411.8628,542.978,415.8628,538.978,419.8628,547.978,415.8628" style="stroke:#1A85FF;stroke-width:2.0;"/><text fill="#000000" font-family="sans-serif" font-size="13" lengthAdjust="spacing" textLength="61" x="456" y="411.9297">depend:1</text></g><!--MD5=[9f3237f55493a0d177cfac72db78ff2c]
link help to visualizer--><g id="link_help_visualizer"><path d="M95.2545,60.8628 C138.014,60.8628 213.177,60.8628 267.148,60.8628 " fill="none" id="help-to-visualizer" style="stroke:#D41159;stroke-width:2.0;"/><polygon fill="#D41159" points="272.303,60.8628,263.303,56.8628,267.303,60.8628,263.303,64.8628,272.303,60.8628" style="stroke:#D41159;stroke-width:2.0;"/><text fill="#000000" font-family="sans-serif" font-size="13" lengthAdjust="spacing" textLength="34" x="160.5" y="56.9297">call:1</text></g><!--MD5=[1c433331aafcb2fb0d80cb0d333e72d6]
@startuml
title
DB draw
end title

left to right direction

skinparam Shadowing false
skinparam ArrowFontColor Black
skinparam ArrowThickness 2
skinparam UseCaseBackgroundColor #FFFECC
skinparam UseCaseBorderColor #333333
skinparam UseCaseBorderThickness 2
skinparam UseCaseFontColor Black


(setup) -[#1A85FF]-> (composer:install) : depend:1
(setup) -[#1A85FF]-> (dc:up) : depend:2
(setup) -[#1A85FF]-> (dc:ip) : depend:3
(qa) -[#1A85FF]-> (composer:validate) : depend:1
(qa) -[#1A85FF]-> (composer:normalize) : depend:2
(qa) -[#1A85FF]-> (cs:fix) : depend:3
(qa) -[#1A85FF]-> (phpstan:analyze) : depend:4
(qa) -[#1A85FF]-> (phpunit:run) : depend:5
(qa) -[#1A85FF]-> (plantuml:convert) : depend:6
(phpunit:run) -[#1A85FF]-> (db:wait-for-database) : depend:1
(help) -[#D41159]-> (visualizer) : call:1
(setup)
(qa)
(dc:up)
(dc:stop)
(dc:down)
(dc:ip)
(dc:shell)
(remote:qa)
(phpstan:analyze)
(composer:validate)
(composer:normalize)
(composer:install)
(plantuml:convert)
(phpunit:run)
(db:wait-for-database)
(help)
(visualizer)
(cs:fix)
(mkdocs:build)
(mkdocs:serve)
(mkdocs:gh-deploy)
@enduml

PlantUML version 1.2022.10beta1(Unknown compile time)
(GPL source distribution)
Java Runtime: Java(TM) SE Runtime Environment
JVM: Java HotSpot(TM) 64-Bit Server VM
Default Encoding: UTF-8
Language: en
Country: US
--></g></svg>