<svg xmlns="http://www.w3.org/2000/svg" xmlns:xlink="http://www.w3.org/1999/xlink" contentStyleType="text/css" data-diagram-type="DESCRIPTION" height="891px" preserveAspectRatio="none" style="width:751px;height:891px;background:#FFFFFF;" version="1.1" viewBox="0 0 751 891" width="751px" zoomAndPan="magnify"><title>DB draw</title><defs/><g><text fill="#000000" font-family="sans-serif" font-size="14" font-weight="bold" lengthAdjust="spacing" textLength="66.4727" x="335.7416" y="22.9951">DB draw</text><g id="elem_setup"><ellipse cx="76.1918" cy="638.8675" fill="#FFFECC" rx="39.3018" ry="14.5647" style="stroke:#333333;stroke-width:2;"/><text fill="#000000" font-family="sans-serif" font-size="14" lengthAdjust="spacing" textLength="39.1563" x="54.4526" y="642.4026">setup</text></g><g id="elem_composer:install"><ellipse cx="354.2074" cy="604.8663" fill="#FFFECC" rx="78.8174" ry="18.1635" style="stroke:#333333;stroke-width:2;"/><text fill="#000000" font-family="sans-serif" font-size="14" lengthAdjust="spacing" textLength="115.6367" x="294.2655" y="608.3782">composer:install</text></g><g id="elem_dc:up"><ellipse cx="354.2114" cy="672.8667" fill="#FFFECC" rx="39.2314" ry="14.5639" style="stroke:#333333;stroke-width:2;"/><text fill="#000000" font-family="sans-serif" font-size="14" lengthAdjust="spacing" textLength="39.0605" x="332.545" y="676.3951">dc:up</text></g><g id="elem_qa"><ellipse cx="76.1855" cy="326.8664" fill="#FFFECC" rx="23.8355" ry="14.5236" style="stroke:#333333;stroke-width:2;"/><text fill="#000000" font-family="sans-serif" font-size="14" lengthAdjust="spacing" textLength="17.4658" x="67.4526" y="329.7131">qa</text></g><g id="elem_composer:validate"><ellipse cx="354.205" cy="129.8598" fill="#FFFECC" rx="84.835" ry="19.367" style="stroke:#333333;stroke-width:2;"/><text fill="#000000" font-family="sans-serif" font-size="14" lengthAdjust="spacing" textLength="129.9443" x="289.2329" y="132.7065">composer:validate</text></g><g id="elem_php:lint"><ellipse cx="354.2119" cy="198.8638" fill="#FFFECC" rx="49.9919" ry="14.6911" style="stroke:#333333;stroke-width:2;"/><text fill="#000000" font-family="sans-serif" font-size="14" lengthAdjust="spacing" textLength="53.5049" x="324.4595" y="202.6114">php:lint</text></g><g id="elem_cs:fix"><ellipse cx="354.2058" cy="262.8601" fill="#FFFECC" rx="37.5858" ry="14.5473" style="stroke:#333333;stroke-width:2;"/><text fill="#000000" font-family="sans-serif" font-size="14" lengthAdjust="spacing" textLength="36.8115" x="334.2353" y="266.2292">cs:fix</text></g><g id="elem_cs:check"><ellipse cx="354.21" cy="326.8607" fill="#FFFECC" rx="55.36" ry="14.7379" style="stroke:#333333;stroke-width:2;"/><text fill="#000000" font-family="sans-serif" font-size="14" lengthAdjust="spacing" textLength="60.6963" x="320.8619" y="330.6083">cs:check</text></g><g id="elem_phpstan:analyze"><ellipse cx="354.2102" cy="394.8668" fill="#FFFECC" rx="78.8702" ry="18.174" style="stroke:#333333;stroke-width:2;"/><text fill="#000000" font-family="sans-serif" font-size="14" lengthAdjust="spacing" textLength="115.7666" x="294.2243" y="398.3729">phpstan:analyze</text></g><g id="elem_phpunit:run"><ellipse cx="354.2096" cy="463.8647" fill="#FFFECC" rx="66.1096" ry="15.6219" style="stroke:#333333;stroke-width:2;"/><text fill="#000000" font-family="sans-serif" font-size="14" lengthAdjust="spacing" textLength="81.9902" x="310.2145" y="467.6123">phpunit:run</text></g><g id="elem_plantuml:convert"><ellipse cx="354.2082" cy="532.8644" fill="#FFFECC" rx="80.6582" ry="18.5316" style="stroke:#333333;stroke-width:2;"/><text fill="#000000" font-family="sans-serif" font-size="14" lengthAdjust="spacing" textLength="120.1143" x="292.7304" y="536.1718">plantuml:convert</text></g><g id="elem_db:wait-for-database"><ellipse cx="653.9979" cy="463.8644" fill="#FFFECC" rx="91.9579" ry="20.7916" style="stroke:#333333;stroke-width:2;"/><text fill="#000000" font-family="sans-serif" font-size="14" lengthAdjust="spacing" textLength="146.1592" x="580.9183" y="466.7111">db:wait-for-database</text></g><g id="elem_help"><ellipse cx="76.1945" cy="60.8665" fill="#FFFECC" rx="32.8845" ry="14.5237" style="stroke:#333333;stroke-width:2;"/><text fill="#000000" font-family="sans-serif" font-size="14" lengthAdjust="spacing" textLength="30.2627" x="60.9821" y="63.7444">help</text></g><g id="elem_visualizer"><ellipse cx="354.2118" cy="60.862" fill="#FFFECC" rx="59.6318" ry="14.7693" style="stroke:#333333;stroke-width:2;"/><text fill="#000000" font-family="sans-serif" font-size="14" lengthAdjust="spacing" textLength="66.418" x="318.0028" y="64.6096">visualizer</text></g><g id="elem_dc:stop"><ellipse cx="76.1925" cy="738.8592" fill="#FFFECC" rx="48.5225" ry="14.6764" style="stroke:#333333;stroke-width:2;"/><text fill="#000000" font-family="sans-serif" font-size="14" lengthAdjust="spacing" textLength="51.5361" x="47.4245" y="742.6068">dc:stop</text></g><g id="elem_dc:down"><ellipse cx="76.1906" cy="802.861" fill="#FFFECC" rx="54.1506" ry="14.7282" style="stroke:#333333;stroke-width:2;"/><text fill="#000000" font-family="sans-serif" font-size="14" lengthAdjust="spacing" textLength="59.0762" x="43.6525" y="806.6085">dc:down</text></g><g id="elem_mkdocs:build"><ellipse cx="76.1857" cy="868.8599" fill="#FFFECC" rx="70.1857" ry="16.4371" style="stroke:#333333;stroke-width:2;"/><text fill="#000000" font-family="sans-serif" font-size="14" lengthAdjust="spacing" textLength="93.3311" x="26.5202" y="872.6075">mkdocs:build</text></g><g id="elem_mkdocs:serve"><ellipse cx="354.2084" cy="738.8585" fill="#FFFECC" rx="71.7284" ry="16.7457" style="stroke:#333333;stroke-width:2;"/><text fill="#000000" font-family="sans-serif" font-size="14" lengthAdjust="spacing" textLength="97.4668" x="302.475" y="742.606">mkdocs:serve</text></g><g id="elem_mkdocs:gh-deploy"><ellipse cx="354.2088" cy="809.8645" fill="#FFFECC" rx="84.3588" ry="19.2718" style="stroke:#333333;stroke-width:2;"/><text fill="#000000" font-family="sans-serif" font-size="14" lengthAdjust="spacing" textLength="128.8438" x="289.6438" y="812.7607">mkdocs:gh-deploy</text></g><!--link setup to composer:install--><g id="link_setup_composer:install"><path d="M114.12,634.3128 C157.39,628.9828 224.0249,620.7757 277.8949,614.1457 " fill="#FFFFFF" fill-opacity="0.00000" id="setup-to-composer:install" style="stroke:#1A85FF;stroke-width:2;"/><polygon fill="#1A85FF" points="283.85,613.4128,274.4288,610.5421,278.8874,614.0236,275.406,618.4822,283.85,613.4128" style="stroke:#1A85FF;stroke-width:2;"/><text fill="#000000" font-family="sans-serif" font-size="13" lengthAdjust="spacing" textLength="61.6421" x="177.37" y="614.9297">depend:1</text></g><!--link setup to dc:up--><g id="link_setup_dc:up"><path d="M114.12,643.4128 C167.01,649.9328 257.765,661.1093 310.535,667.6093 " fill="#FFFFFF" fill-opacity="0.00000" id="setup-to-dc:up" style="stroke:#1A85FF;stroke-width:2;"/><polygon fill="#1A85FF" points="316.49,668.3428,308.0465,663.2725,311.5275,667.7315,307.0685,671.2125,316.49,668.3428" style="stroke:#1A85FF;stroke-width:2;"/><text fill="#000000" font-family="sans-serif" font-size="13" lengthAdjust="spacing" textLength="61.6421" x="177.37" y="646.9297">depend:2</text></g><!--link qa to composer:validate--><g id="link_qa_composer:validate"><path d="M86.2,313.3828 C102.13,290.3528 137.32,242.9928 176.37,212.8628 C215.58,182.6228 261.9579,161.9785 299.4079,148.0185 " fill="#FFFFFF" fill-opacity="0.00000" id="qa-to-composer:validate" style="stroke:#1A85FF;stroke-width:2;"/><polygon fill="#1A85FF" points="305.03,145.9228,295.1997,145.3183,300.3449,147.6692,297.994,152.8144,305.03,145.9228" style="stroke:#1A85FF;stroke-width:2;"/><text fill="#000000" font-family="sans-serif" font-size="13" lengthAdjust="spacing" textLength="61.6421" x="177.37" y="172.9297">depend:1</text></g><!--link qa to php:lint--><g id="link_qa_php:lint"><path d="M92.39,315.7528 C111.35,302.2428 145.1,279.3228 176.37,263.8628 C223.73,240.4628 275.9839,222.505 312.3439,211.125 " fill="#FFFFFF" fill-opacity="0.00000" id="qa-to-php:lint" style="stroke:#1A85FF;stroke-width:2;"/><polygon fill="#1A85FF" points="318.07,209.3328,308.2861,208.2036,313.2983,210.8263,310.6756,215.8384,318.07,209.3328" style="stroke:#1A85FF;stroke-width:2;"/><text fill="#000000" font-family="sans-serif" font-size="13" lengthAdjust="spacing" textLength="61.6421" x="177.37" y="233.9297">depend:2</text></g><!--link qa to cs:fix--><g id="link_qa_cs:fix"><path d="M98.42,321.3128 C118.48,316.1228 149.41,308.2328 176.37,301.8628 C226.55,290.0128 279.142,278.5943 314.682,271.0143 " fill="#FFFFFF" fill-opacity="0.00000" id="qa-to-cs:fix" style="stroke:#1A85FF;stroke-width:2;"/><polygon fill="#1A85FF" points="320.55,269.7628,310.9136,267.7281,315.66,270.8057,312.5823,275.5521,320.55,269.7628" style="stroke:#1A85FF;stroke-width:2;"/><text fill="#000000" font-family="sans-serif" font-size="13" lengthAdjust="spacing" textLength="61.6421" x="177.37" y="284.9297">depend:3</text></g><!--link qa to cs:check--><g id="link_qa_cs:check"><path d="M100.24,326.8628 C143.52,326.8628 231.98,326.8628 292.43,326.8628 " fill="#FFFFFF" fill-opacity="0.00000" id="qa-to-cs:check" style="stroke:#1A85FF;stroke-width:2;"/><polygon fill="#1A85FF" points="298.43,326.8628,289.43,322.8628,293.43,326.8628,289.43,330.8628,298.43,326.8628" style="stroke:#1A85FF;stroke-width:2;"/><text fill="#000000" font-family="sans-serif" font-size="13" lengthAdjust="spacing" textLength="61.6421" x="177.37" y="322.9297">depend:4</text></g><!--link qa to phpstan:analyze--><g id="link_qa_phpstan:analyze"><path d="M98.46,332.2828 C118.53,337.3828 149.48,345.2028 176.37,351.8628 C217.31,362.0028 257.8078,371.8535 292.7778,380.3035 " fill="#FFFFFF" fill-opacity="0.00000" id="qa-to-phpstan:analyze" style="stroke:#1A85FF;stroke-width:2;"/><polygon fill="#1A85FF" points="298.61,381.7128,290.8013,375.7108,293.7499,380.5384,288.9223,383.487,298.61,381.7128" style="stroke:#1A85FF;stroke-width:2;"/><text fill="#000000" font-family="sans-serif" font-size="13" lengthAdjust="spacing" textLength="61.6421" x="177.37" y="347.9297">depend:5</text></g><!--link qa to phpunit:run--><g id="link_qa_phpunit:run"><path d="M92.11,337.9028 C111.08,351.6128 145.1,375.2428 176.37,391.8628 C215.95,412.9028 227.85,413.9928 269.37,430.8628 C285.46,437.4028 297.763,442.2853 312.883,448.2053 " fill="#FFFFFF" fill-opacity="0.00000" id="qa-to-phpunit:run" style="stroke:#1A85FF;stroke-width:2;"/><polygon fill="#1A85FF" points="318.47,450.3928,311.5478,443.3868,313.8141,448.5699,308.6311,450.8362,318.47,450.3928" style="stroke:#1A85FF;stroke-width:2;"/><text fill="#000000" font-family="sans-serif" font-size="13" lengthAdjust="spacing" textLength="61.6421" x="177.37" y="387.9297">depend:6</text></g><!--link qa to plantuml:convert--><g id="link_qa_plantuml:convert"><path d="M86,340.2628 C101.9,363.6828 137.39,412.6328 176.37,444.8628 C212.87,475.0428 226.89,475.9428 269.37,496.8628 C283.44,503.7928 293.6338,508.416 307.6338,514.336 " fill="#FFFFFF" fill-opacity="0.00000" id="qa-to-plantuml:convert" style="stroke:#1A85FF;stroke-width:2;"/><polygon fill="#1A85FF" points="313.16,516.6728,306.4285,509.4834,308.5548,514.7255,303.3128,516.8517,313.16,516.6728" style="stroke:#1A85FF;stroke-width:2;"/><text fill="#000000" font-family="sans-serif" font-size="13" lengthAdjust="spacing" textLength="61.6421" x="177.37" y="440.9297">depend:7</text></g><!--link phpunit:run to db:wait-for-database--><g id="link_phpunit:run_db:wait-for-database"><path d="M420.56,463.8628 C461.99,463.8628 510.19,463.8628 555.82,463.8628 " fill="#FFFFFF" fill-opacity="0.00000" id="phpunit:run-to-db:wait-for-database" style="stroke:#1A85FF;stroke-width:2;"/><polygon fill="#1A85FF" points="561.82,463.8628,552.82,459.8628,556.82,463.8628,552.82,467.8628,561.82,463.8628" style="stroke:#1A85FF;stroke-width:2;"/><text fill="#000000" font-family="sans-serif" font-size="13" lengthAdjust="spacing" textLength="61.6421" x="470.04" y="459.9297">depend:1</text></g><!--link help to visualizer--><g id="link_help_visualizer"><path d="M109.39,60.8628 C154.61,60.8628 231.71,60.8628 288.2,60.8628 " fill="#FFFFFF" fill-opacity="0.00000" id="help-to-visualizer" style="stroke:#D41159;stroke-width:2;"/><polygon fill="#D41159" points="294.2,60.8628,285.2,56.8628,289.2,60.8628,285.2,64.8628,294.2,60.8628" style="stroke:#D41159;stroke-width:2;"/><text fill="#000000" font-family="sans-serif" font-size="13" lengthAdjust="spacing" textLength="34.9883" x="190.87" y="56.9297">call:1</text></g><!--SRC=[XLAxSiCW4EplAvXnOnSg_Cg38ZD-H3-GfCgam72s665G04cnlpvOLYBPiX8QE6xlkDt5IwyGraiYB2i1jI2-kW65Mq-y8LRk4a-4jCYzD1h0fL9dpB8zUKcOCANKEx9boc4hix3MbB7HVcMKiMIf64-lqw-9vAb6vyYabNfpk68Ebw5WPqsknRd388xZvzNg1j1OWRO6JQlL1_hpmUjX0OOEVPwDIFG-62yUvd7y4JsH8JVxp3YqL6hdcL8ZGed0B0X7npqbWjFJvIzk0iDFrjktO4eAvl6oSRSWIpAgfFR_DdPqAxzQg6aFYYV8qnPkrlDgeAqfqqmTZkqXvptmN4jFRQvRqBkRKCMqp_UASgCBj6rUzt3Pw4hU3IsPzD7Ms2W8npR1pKln4bHdKzQpyNZ-M5KLqkL1wIFQ4vO79nl_gl6WzgtQdJVrANnuFO96VUX80ZUyXEw_WIxZIvfmcrbD1zeCuCTbQ8o4uJuL9eIRN2hHX6660fjmbqH1A6KEesy0]--></g></svg>